<?xml version="1.0" encoding="UTF-8" standalone="no"?>
<svg
   xmlns:dc="http://purl.org/dc/elements/1.1/"
   xmlns:cc="http://creativecommons.org/ns#"
   xmlns:rdf="http://www.w3.org/1999/02/22-rdf-syntax-ns#"
   xmlns:svg="http://www.w3.org/2000/svg"
   xmlns="http://www.w3.org/2000/svg"
   xmlns:sodipodi="http://sodipodi.sourceforge.net/DTD/sodipodi-0.dtd"
   xmlns:inkscape="http://www.inkscape.org/namespaces/inkscape"
   viewBox="0 0 300 300.00699"
   version="1.1"
   id="svg272"
   sodipodi:docname="Chicago_Cubs_logo1.svg"
   width="300"
   height="300.00699"
   style="clip-rule:evenodd;fill-rule:evenodd"
   inkscape:version="0.92.4 (5da689c313, 2019-01-14)">
  <metadata
     id="metadata278">
    <rdf:RDF>
      <cc:Work
         rdf:about="">
        <dc:format>image/svg+xml</dc:format>
        <dc:type
           rdf:resource="http://purl.org/dc/dcmitype/StillImage" />
      </cc:Work>
    </rdf:RDF>
  </metadata>
  <defs
     id="defs276" />
  <sodipodi:namedview
     pagecolor="#ffffff"
     bordercolor="#666666"
     borderopacity="1"
     objecttolerance="10"
     gridtolerance="10"
     guidetolerance="10"
     inkscape:pageopacity="0"
     inkscape:pageshadow="2"
     inkscape:window-width="640"
     inkscape:window-height="480"
     id="namedview274"
     showgrid="false"
     inkscape:zoom="0.53571429"
     inkscape:cx="117.33233"
     inkscape:cy="150.003"
     inkscape:window-x="0"
     inkscape:window-y="0"
     inkscape:window-maximized="0"
     inkscape:current-layer="svg272" />
  <path
     d="M 0,150 C 0,67.136 67.136,0 150,0 232.864,0 300,67.136 300,150 300,232.862 232.864,300.007 150,300.007 67.136,300.007 0,232.862 0,150 Z"
     id="path264"
     inkscape:connector-curvature="0"
     style="fill:#ffffff" />
  <path
     d="M 9.757,149.529 C 9.757,72.148 72.619,9.289 150,9.289 c 77.381,0 140.243,62.859 140.243,140.24 0,77.381 -62.862,140.226 -140.243,140.226 C 72.386,289.755 9.757,226.91 9.757,149.529 Z"
     id="path266"
     inkscape:connector-curvature="0"
     style="fill:#0e3386" />
  <path
     d="m 150,253.103 c 57.143,0 103.571,-46.429 103.571,-103.571 C 253.571,92.389 207.142,45.961 150,45.961 92.857,45.961 46.429,92.39 46.429,149.532 c 0,57.143 46.195,103.571 103.571,103.571 z"
     id="path268"
     inkscape:connector-curvature="0"
     style="fill:#ffffff" />
  <path
     d="m 150.004,58.566 c -50.234,0 -90.947,40.715 -90.947,90.966 0,50.237 40.713,90.942 90.947,90.942 29.763,0 55.954,-14.281 72.621,-36.179 l -27.148,-25.484 c -9.76,15.007 -26.424,25 -45.708,25 -29.998,0 -54.294,-24.281 -54.294,-54.28 0.236,-30.013 24.531,-54.294 54.53,-54.294 19.767,0 36.906,10.481 46.43,26.191 L 223.095,95.47 C 206.428,73.086 180.001,58.564 150.005,58.564 Z m -16.198,66.906 v 32.87 c 0,4.529 -6.893,4.529 -6.893,0 v -32.865 h -16.434 v 32.391 c 0,10.714 2.619,15.715 10.481,15.715 h 16.9 c 9.524,0 12.374,-2.869 12.374,-14.774 v -33.334 h -16.429 v -0.002 z m 22.381,0 v 48.108 h 25.722 c 9.038,0 13.803,-1.679 13.803,-12.393 0,-4.041 -0.005,-8.803 -4.514,-11.417 3.319,-1.676 4.514,-4.762 4.514,-10.714 0,-11.2 -4.043,-13.584 -13.803,-13.584 z m 57.144,0 c -7.143,0 -11.181,2.869 -11.417,11.203 -0.25,8.333 0,4.76 0,7.845 0,3.102 -0.488,10.012 9.036,10.012 h 11.905 c 3.338,0 2.619,4.041 2.619,4.041 v 2.614 c 0,2.867 -5.702,2.869 -6.893,0.721 -0.955,-1.426 -0.488,-4.041 -0.488,-4.041 h -16.179 c 0,3.319 -1.91,15.946 8.083,15.946 8.584,-0.236 18.346,-0.233 18.346,-0.233 8.803,0 13.329,-2.379 13.329,-10.245 v -10.714 c 0,-5.717 -4.041,-9.291 -9.757,-9.291 h -11.672 c -3.102,0 -2.381,-4.512 -2.381,-5.952 0,-2.129 6.672,-2.85 6.672,0.721 v 2.148 h 17.369 c 0,-11.2 -2.143,-14.774 -13.326,-14.774 h -15.246 z m -39.989,11.203 c 4.998,0 6.893,-0.002 6.893,1.893 v 2.633 c 0,2.381 -4.041,2.129 -6.893,2.129 z m 3.005,19.479 c 2.491,-0.019 2.936,0.162 3.652,1.948 0.233,0.469 0,1.893 0,2.614 0,2.381 -3.336,2.15 -6.907,2.15 v -6.674 c 1.371,0 2.426,-0.031 3.255,-0.038 z"
     id="path270"
     inkscape:connector-curvature="0"
     style="fill:#cc3433" />
</svg>
