<?xml version="1.0" encoding="UTF-8" standalone="no"?>
<!-- Created with Inkscape (http://www.inkscape.org/) -->

<svg
   version="1.1"
   id="svg1"
   width="2339"
   height="1034"
   viewBox="0 0 2339 1034"
   xmlns="http://www.w3.org/2000/svg"
   xmlns:svg="http://www.w3.org/2000/svg">
  <defs
     id="defs1" />
  <path
     style="fill:#000000;stroke-width:1.21965"
     d="m 1316.6782,1007.8513 c -2.6122,-1.0193 -7.4209,-2.4591 -10.6861,-3.1996 -10.7525,-2.4385 -28.6793,-14.66752 -31.5609,-21.52953 -0.6195,-1.47546 -2.1812,-4.37388 -3.4703,-6.44104 -1.2892,-2.06717 -2.6562,-4.60415 -3.0375,-5.63773 -0.3813,-1.03359 -1.1887,-2.85822 -1.794,-4.05479 -3.3341,-6.58975 1.302,-60.16301 5.8832,-67.98291 0.4035,-0.68906 1.3677,-4.35358 2.1423,-8.1434 3.0692,-15.01366 3.5689,-17.01142 4.914,-19.64975 0.7674,-1.50503 1.3953,-4.71352 1.3953,-7.12985 0,-2.41633 0.4932,-4.71489 1.096,-5.10804 0.6027,-0.39314 1.4481,-2.54048 1.8784,-4.77203 2.0542,-10.6513 6.369,-24.26417 9.7017,-30.60788 1.5176,-2.88877 2.7594,-6.14174 2.7594,-7.2287 0,-1.08683 1.3358,-4.20888 2.9684,-6.93766 1.6326,-2.72892 2.9682,-5.54415 2.9682,-6.25626 0,-0.71211 0.5143,-2.27376 1.1428,-3.47021 0.6285,-1.19646 2.4781,-5.27616 4.1102,-9.06597 1.6321,-3.78982 3.7652,-8.30001 4.7403,-10.02264 0.9749,-1.72264 4.7922,-9.89735 8.4827,-18.16602 11.2938,-25.30391 16.3524,-35.70565 17.3641,-35.70565 0.5322,0 0.9677,-1.4375 0.9677,-3.19435 0,-3.85269 2.7972,-9.82593 6.66,-14.22136 1.5613,-1.77676 2.8388,-3.99528 2.8388,-4.93026 0,-0.93486 2.0826,-4.19623 4.6279,-7.24736 2.5455,-3.05115 5.4984,-7.48304 6.5622,-9.8485 1.0639,-2.36546 2.4543,-4.63998 3.0898,-5.05442 0.6355,-0.41443 1.1555,-2.44866 1.1555,-4.52046 0,-2.0718 0.5247,-4.8011 1.1657,-6.06495 2.0351,-4.01231 -3.8385,-4.56055 -7.9227,-0.73942 -0.7777,0.72764 -4.5179,4.28481 -8.3114,7.90473 -24.3496,23.23561 -24.8436,23.57087 -40.7368,27.64381 -35.0994,8.99519 -61.8335,7.08463 -75.6646,-5.40721 -2.661,-2.4033 -8.498,-6.53914 -12.9711,-9.19076 -5.9365,-3.51907 -9.1936,-6.48213 -12.0603,-10.97153 -5.4135,-8.47765 -9.6141,-14.14019 -14.3192,-19.30285 -7.0122,-7.69412 -12.0308,-14.60936 -12.0308,-16.57793 0,-7.46837 -8.3632,-5.53776 -11.7244,2.70648 -1.3923,3.41521 -3.0858,6.57084 -3.7632,7.01246 -0.6772,0.44175 -2.6126,3.15187 -4.3005,6.02236 -1.6879,2.8706 -7.9909,10.30752 -14.0067,16.52657 -6.0157,6.21893 -12.3466,13.55362 -14.0686,16.29932 -3.9458,6.29133 -13.1243,14.74116 -20.596,18.96082 -19.1514,10.81593 -25.8497,13.50137 -37.0923,14.87095 -3.6588,0.44563 -9.7161,1.61653 -13.4604,2.60176 -8.2039,2.15875 -10.9135,1.5832 -21.6884,-4.60741 -12.0551,-6.92602 -42.12383,-33.09938 -42.14461,-36.68485 0,-0.58056 -2.94486,-4.48212 -6.53659,-8.67009 -3.59176,-4.18783 -6.53044,-8.03728 -6.53044,-8.55432 0,-0.51717 -2.67153,-5.48513 -5.93673,-11.04005 -3.2652,-5.55493 -5.93673,-10.94246 -5.93673,-11.97217 0,-8.307 -10.1074,-5.63021 -14.90772,3.94805 -9.82659,19.60715 -20.54726,34.52949 -30.64444,42.65471 -4.00659,3.22416 -10.07143,8.63989 -13.47744,12.03518 -3.40603,3.39529 -8.74908,7.99794 -11.87346,10.2281 -3.12439,2.23016 -6.69853,5.25412 -7.94263,6.71981 -1.24398,1.4658 -2.64862,2.66514 -3.1213,2.66514 -0.4728,0 -3.92655,1.94865 -7.67512,4.3304 -3.8698,2.4588 -9.19219,4.65539 -12.3142,5.0821 -3.02415,0.41331 -9.62422,1.5792 -14.6668,2.59098 -8.54088,1.71361 -9.97566,1.66588 -20.96506,-0.69708 -6.48821,-1.39515 -13.73423,-2.5366 -16.10225,-2.5366 -2.36803,0 -7.05366,-1.46945 -10.41251,-3.26538 -3.35882,-1.79593 -8.69252,-4.07544 -11.85262,-5.06569 -4.30845,-1.35004 -7.3002,-3.55302 -11.96056,-8.80726 -3.41821,-3.8537 -9.61206,-10.45361 -13.7641,-14.66637 -4.15205,-4.21264 -8.65088,-10.19641 -9.99739,-13.29715 -1.34653,-3.10076 -5.29608,-9.36503 -8.77682,-13.9207 -3.48075,-4.55554 -6.32862,-9.17334 -6.32862,-10.2618 0,-1.08858 -0.5343,-2.32752 -1.18734,-2.75335 -0.65304,-0.42596 -1.18735,-2.46945 -1.18735,-4.54126 0,-2.0718 -0.65008,-4.99828 -1.44464,-6.50343 -2.24493,-4.25235 -6.94953,-18.47661 -7.94938,-24.03453 -0.49583,-2.75623 -2.058,-7.14264 -3.47149,-9.74764 -1.4135,-2.60488 -2.56998,-6.71028 -2.56998,-9.12322 0,-2.41283 -0.80146,-6.411 -1.78102,-8.88471 -0.97957,-2.47369 -1.78102,-5.56397 -1.78102,-6.86728 0,-1.30332 -0.47945,-3.34862 -1.06546,-4.54511 -0.586,-1.19651 -1.97619,-4.71244 -3.08931,-7.81318 -1.11313,-3.10076 -2.51925,-6.4834 -3.12472,-7.51699 -0.60549,-1.03359 -1.40685,-2.83364 -1.78082,-4.00013 -0.82197,-2.56386 -7.08098,-4.24533 -9.12849,-2.45235 -1.04546,0.91552 -1.25531,3.74534 -0.72825,9.82024 0.79876,9.20678 -0.31324,14.34134 -5.7111,26.37058 -2.47622,5.51821 -2.87435,7.81627 -2.27671,13.14068 0.61551,5.48363 0.31702,7.02899 -1.98733,10.28873 -3.2314,4.57132 -7.91553,21.0692 -7.91553,27.87921 0,2.66239 -0.72441,5.95282 -1.60981,7.31201 -0.88539,1.35907 -2.559,5.57196 -3.71913,9.36177 -1.16016,3.78982 -2.52513,7.45434 -3.03334,8.1434 -0.50819,0.68905 -1.31253,3.44642 -1.78743,6.12747 -1.51155,8.53352 -4.82127,16.5059 -9.73683,23.45409 -2.62665,3.71276 -5.1322,7.99267 -5.56788,9.51098 -0.43569,1.51843 -3.50478,5.46484 -6.82021,8.76981 -3.31544,3.30509 -6.89389,6.92776 -7.95211,8.05055 -17.31422,18.36874 -51.68074,23.66947 -66.83652,10.30879 -2.71993,-2.3978 -6.32509,-5.11518 -8.01147,-6.03877 -10.27832,-5.62909 -23.84333,-25.82846 -23.90569,-35.59752 -0.0555,-8.68135 -0.94878,-17.7586 -3.00121,-30.49425 -0.47462,-2.94515 -0.0499,-6.82491 1.15592,-10.55898 2.17364,-6.73107 2.54969,-23.18059 0.66065,-28.89825 -1.00045,-3.02822 -0.76691,-5.09927 1.18675,-10.5229 1.3378,-3.71388 2.42908,-8.16193 2.42507,-9.88456 -0.0186,-7.94633 5.19175,-33.70058 7.73035,-38.21135 0.77559,-1.37811 1.77931,-4.19698 2.23051,-6.26415 2.76912,-12.6867 4.45416,-22.05434 4.91603,-27.32955 0.29044,-3.31728 1.28791,-7.82747 2.21659,-10.02263 2.00151,-4.73104 4.67002,-13.0877 6.67532,-20.9044 2.25079,-8.77356 6.9995,-20.26593 10.21583,-24.72341 1.60795,-2.22845 3.69918,-6.37136 4.64718,-9.20646 0.94801,-2.83509 2.96407,-6.18426 4.48015,-7.44257 1.55534,-1.2909 3.6939,-5.46808 4.9077,-9.58599 2.44356,-8.29006 2.38749,-8.1709 7.2004,-15.30174 8.73786,-12.94607 12.6313,-17.59073 18.57604,-22.1602 3.49702,-2.68802 7.96114,-6.39275 9.92025,-8.23276 1.95913,-1.83999 4.89781,-4.47668 6.5304,-5.85931 8.06073,-6.82649 -41.00514,-2.60336 -56.55482,4.86773 -4.68479,2.25087 -9.72627,3.26926 -30.46505,6.15398 -5.0868,0.70756 -11.45501,2.4741 -14.15156,3.92566 -2.69655,1.45154 -10.55649,3.71425 -17.46655,5.02823 -6.91004,1.31398 -13.36518,2.65414 -14.34474,2.97815 -0.97955,0.324 -6.43234,1.44254 -12.11729,2.48566 -5.68495,1.04312 -13.16522,2.99492 -16.62284,4.33732 -9.44449,3.66681 -24.06751,7.29686 -35.35426,8.77647 -5.53859,0.72607 -13.6476,2.76253 -18.01999,4.52546 -4.37241,1.76292 -17.47291,5.77189 -29.11225,8.90877 -11.63933,3.13689 -24.90255,6.81233 -29.47384,8.16766 -4.57128,1.35532 -10.87327,2.95358 -14.00442,3.5517 -9.67439,1.84803 -9.63793,1.81231 -13.07544,12.81181 -3.09313,9.89754 -4.64621,19.10977 -6.72837,39.90994 -0.52476,5.24217 -1.54789,10.70189 -2.27363,12.13273 -0.72575,1.43084 -1.33228,5.31652 -1.34786,8.63484 -0.0156,3.31832 -0.57397,8.28839 -1.24087,11.04462 -1.94374,8.03326 -3.5182,24.68852 -4.55966,48.23398 -0.53337,12.05848 -1.68669,25.1617 -2.56297,29.11825 -1.33488,6.0275 -1.33261,8.87129 0.014,17.53962 0.884,5.69022 1.72241,20.52899 1.86318,32.97498 0.15801,13.97155 0.77179,23.64615 1.60425,25.28735 0.74158,1.46218 1.34833,4.59964 1.34833,6.97226 0,2.3726 0.80145,5.01569 1.78101,5.8735 2.39128,2.09398 2.41783,14.91945 0.0378,18.2397 -0.95878,1.33765 -1.76024,4.8363 -1.78102,7.77493 -0.0673,9.52603 -15.23761,13.94575 -27.56899,8.03202 -11.44344,-5.4879 -29.46135,-28.00074 -29.46135,-36.81114 0,-1.06704 -0.80145,-2.64184 -1.78101,-3.49965 -1.21755,-1.06628 -1.78102,-3.91534 -1.78102,-9.00559 0,-4.09525 -0.54606,-8.52262 -1.21348,-9.83847 -0.6674,-1.31585 -1.55163,-8.62849 -1.96491,-16.25032 -0.41331,-7.62197 -1.20301,-14.15247 -1.7549,-14.51241 -1.37986,-0.89978 -1.27112,-22.69438 0.12698,-25.45085 0.62174,-1.22578 1.21635,-13.00212 1.32134,-26.16973 0.1824,-22.87448 0.32274,-24.20865 3.15009,-29.94924 2.66533,-5.41165 3.00663,-7.81043 3.43708,-24.15734 0.28295,-10.74635 1.14147,-20.20003 2.10478,-23.17734 2.56243,-7.91985 4.29179,-16.56922 4.29179,-21.46541 0,-2.4746 0.80479,-7.77639 1.78844,-11.78175 1.7526,-7.13653 1.01137,-13.7509 -1.54099,-13.7509 -1.77605,0 -14.81121,2.53404 -25.77538,5.01076 -27.64244,6.24419 -54.60384,11.30063 -66.49136,12.47 -7.18345,0.70665 -18.13672,2.10216 -24.3406,3.10115 -36.77839,5.92229 -106.181551,7.28096 -118.951977,2.32868 -3.711286,-1.43922 -9.015895,-3.02109 -11.788027,-3.51527 -4.160709,-0.74171 -6.509861,-2.45771 -13.462079,-9.8337 C -0.20173214,484.21048 -0.10578274,484.42312 0.02241499,466.66992 0.19123181,443.29241 3.5114542,441.86629 43.843452,447.84776 c 23.177986,3.43746 61.217608,2.44541 92.019298,-2.39976 17.19348,-2.70458 28.14553,-4.13243 38.58874,-5.03094 5.22432,-0.44948 14.30751,-1.84967 20.18487,-3.1115 5.87736,-1.26184 14.96056,-2.95324 20.18488,-3.75865 12.4152,-1.91402 22.93959,-4.40727 40.3075,-9.54891 7.80225,-2.30981 15.39744,-4.19964 16.87818,-4.19964 1.48077,0 4.98177,-0.80273 7.78,-1.78387 2.79824,-0.98111 7.27145,-2.38754 9.94047,-3.12538 5.82127,-1.60929 7.59616,-4.91389 7.65646,-14.25534 0.0231,-3.58512 0.80566,-7.92785 1.73894,-9.65048 0.93328,-1.72264 1.71581,-4.87038 1.73894,-6.99497 0.0232,-2.1246 0.4421,-4.28497 0.93101,-4.80083 1.25287,-1.322 3.84335,-15.80647 4.94833,-27.66834 0.51352,-5.51245 1.54743,-11.99212 2.29758,-14.39927 0.75016,-2.40715 1.36393,-7.58878 1.36393,-11.51473 0,-3.92595 0.5343,-7.48653 1.18734,-7.9124 0.65303,-0.42586 1.20629,-2.2914 1.22943,-4.14563 0.0231,-1.85424 0.80566,-4.78077 1.73893,-6.50342 0.93328,-1.72264 1.71582,-4.56129 1.73895,-6.30812 0.0231,-1.74686 1.36393,-7.3846 2.97951,-12.52831 1.6156,-5.14373 2.94452,-10.76167 2.95315,-12.48431 0.0203,-4.06012 3.53307,-21.28271 4.91542,-24.09996 0.5871,-1.19651 1.06745,-3.52351 1.06745,-5.17113 0,-1.64761 0.80146,-3.6975 1.78101,-4.5553 0.97957,-0.8578 1.78103,-3.35105 1.78103,-5.54056 0,-2.18953 0.52031,-4.52996 1.15627,-5.20099 0.63594,-0.67101 1.47732,-7.38293 1.86972,-14.91536 0.3924,-7.53241 1.20784,-14.67004 1.81209,-15.86136 0.60426,-1.19133 1.10508,-4.03536 1.11296,-6.3201 0.009,-2.28474 1.29844,-6.52371 2.86794,-9.41994 3.97859,-7.34176 6.61651,-17.66724 6.61651,-25.89874 0,-4.71645 0.96124,-9.26864 2.96837,-14.05741 1.6326,-3.8952 2.96836,-8.38476 2.96836,-9.9768 0,-1.59205 0.58017,-4.48171 1.28928,-6.42147 1.38639,-3.79246 2.85742,-11.23414 4.78345,-24.19852 0.6654,-4.478867 1.70846,-8.678979 2.31793,-9.333582 0.60945,-0.654603 1.12509,-5.16479 1.14587,-10.022636 0.0247,-5.772651 0.64167,-9.674926 1.78102,-11.264353 0.95879,-1.337547 1.74326,-3.834498 1.74326,-5.548781 0,-3.603402 1.95595,-10.592413 4.30707,-15.389959 0.89631,-1.828957 1.62965,-4.704638 1.62965,-6.390409 0,-17.119941 18.90129,-27.275878 35.88336,-19.280645 15.76398,7.421761 26.93389,26.414758 20.037,34.070386 -0.58971,0.654603 -1.34219,3.727168 -1.67217,6.827921 -0.72925,6.852776 -3.4562,18.235648 -4.6773,19.524108 -0.48933,0.516328 -0.88971,2.710258 -0.88971,4.875423 0,2.165153 -0.78447,5.031 -1.74326,6.368547 -0.98223,1.370231 -1.75975,5.19392 -1.78102,8.75869 -0.0207,3.47974 -0.6867,7.01153 -1.47986,7.84843 -0.79317,0.83691 -1.83739,4.75514 -2.32052,8.70716 -0.48312,3.95204 -1.40912,10.0044 -2.05778,13.44967 -0.64867,3.4453 -1.77557,9.64681 -2.50425,13.78114 -0.72868,4.13434 -1.83977,8.64453 -2.46907,10.02263 -1.36143,2.98137 -3.41467,13.82199 -4.27123,22.55093 -0.33807,3.44529 -1.16758,6.97918 -1.84335,7.85309 -1.298,1.67859 -2.73651,7.79807 -4.4509,18.93441 -0.57087,3.70822 -1.60879,7.34457 -2.3065,8.08076 -0.69771,0.73619 -1.26856,3.72947 -1.26856,6.65175 0,2.92227 -0.53431,5.66166 -1.18734,6.08752 -0.65304,0.42586 -1.18736,5.42534 -1.18736,11.10996 0,7.14827 -0.53759,11.08561 -1.74326,12.76756 -0.95878,1.33754 -1.76024,3.66711 -1.78101,5.17682 -0.0207,1.50971 -0.52556,3.06304 -1.1218,3.45185 -0.59621,0.3888 -1.44061,3.1 -1.87644,6.02487 -0.43584,2.92488 -1.25117,7.00929 -1.81184,9.07646 -0.56068,2.06717 -1.90991,8.55056 -2.99826,14.40753 -1.08837,5.85699 -2.40237,11.77661 -2.91999,13.15472 -0.90148,2.40009 -3.79212,14.64043 -5.32555,22.55093 -1.09322,5.63966 -4.13423,20.62711 -5.33825,26.30942 -0.58403,2.75623 -1.89557,8.09399 -2.91454,11.8617 -1.01899,3.7677 -1.87614,8.84168 -1.90481,11.27547 -0.0286,2.4338 -0.82208,6.68018 -1.76315,9.4364 -4.12298,12.07559 2.25336,13.49933 22.04325,4.92194 3.61542,-1.567 15.103,-5.09031 25.52793,-7.82954 25.81059,-6.78197 28.97383,-7.48531 43.29502,-9.62654 6.85692,-1.02522 15.94011,-2.74362 20.18487,-3.81868 8.25581,-2.09094 18.55825,-4.16725 40.36975,-8.13596 19.1968,-3.49295 24.69509,-4.93958 30.83878,-8.11387 8.46429,-4.37329 34.74646,-10.58057 49.90075,-11.78547 9.52725,-0.75749 16.16669,-2.04147 21.96589,-4.24786 13.51657,-5.14261 22.86342,-6.98436 38.58873,-7.60371 23.77307,-0.93633 35.85446,-6.17948 37.24365,-16.16324 0.40349,-2.89987 1.60004,-9.78269 2.65902,-15.29513 1.05895,-5.51247 2.29618,-17.91548 2.74939,-27.56226 0.45321,-9.64679 1.46087,-19.12669 2.23923,-21.06645 0.80203,-1.99875 1.4152,-9.39619 1.4152,-17.07341 0,-9.39388 0.56344,-14.96943 1.83801,-18.18815 1.33979,-3.38344 1.82744,-8.94326 1.79906,-20.51147 -0.0733,-29.85697 0.88868,-49.6225 2.80622,-57.66076 1.87506,-7.8602 2.14245,-13.75719 2.20398,-48.607511 0.0282,-15.942194 -0.22721,-18.196585 -2.52697,-22.309335 -2.66194,-4.760503 -3.42792,-12.486665 -1.37092,-13.828081 0.65304,-0.425863 1.18735,-1.774608 1.18735,-2.997208 0,-4.108353 8.07223,-11.148579 14.43326,-12.588017 24.46587,-5.536367 46.12137,3.719851 46.12137,19.713673 0,1.944818 0.78446,4.630396 1.74326,5.967941 0.95879,1.337546 1.76802,3.559453 1.79829,4.937565 0.0302,1.378113 0.78149,4.760752 1.66937,7.516977 2.31037,7.171998 -0.94708,90.506086 -3.89327,99.599946 -0.92036,2.84086 -1.15365,7.75905 -0.66253,13.96715 0.57342,7.2485 0.32004,10.60484 -1.04039,13.78112 -1.1368,2.65415 -2.30212,12.03432 -3.16755,25.49699 -2.0199,31.42186 -2.85842,39.88049 -4.16052,41.96979 -0.64416,1.03358 -1.53131,8.08075 -1.97148,15.66036 -0.44014,7.57962 -1.17192,15.60358 -1.62618,17.831 -1.54799,7.59059 11.28694,8.02441 36.83893,1.2452 3.91824,-1.03955 10.32992,-2.27684 14.24815,-2.74955 3.91824,-0.4727 9.79561,-2.15491 13.06081,-3.73826 11.13693,-5.40048 24.63267,-7.47563 61.1483,-9.40236 13.55926,-0.71544 20.68795,-1.6227 23.15324,-2.9467 3.34867,-1.79842 8.78446,-2.84109 30.27732,-5.80778 4.8978,-0.67605 15.04961,-2.398 22.55957,-3.82655 7.50997,-1.42857 19.53183,-2.74853 26.71528,-2.93326 8.86833,-0.22808 14.69369,-1.02061 18.14755,-2.46898 3.3823,-1.41829 13.1304,-2.79179 29.09,-4.09877 13.2019,-1.08112 33.6208,-3.57746 45.3755,-5.54744 26.3436,-4.41491 31.9606,-4.99007 37.995,-3.8905 2.6725,0.48694 7.6053,0.19757 11.2798,-0.66166 8.833,-2.06551 43.1686,-5.80454 56.6113,-6.16476 5.9941,-0.16062 12.6729,-0.88124 14.8418,-1.60136 2.1688,-0.72013 9.2865,-1.93902 15.8169,-2.70863 6.5304,-0.76962 15.769,-1.92872 20.5301,-2.57578 12.6524,-1.71947 23.6178,-1.49727 25.399,0.51469 1.2569,1.41968 1.7544,1.41968 3.0999,0 0.8815,-0.93013 3.8354,-1.6871 6.5642,-1.68212 7.3811,0.0134 38.8553,-2.74468 70.2655,-6.15743 41.0491,-4.46003 98.9184,-6.46824 123.4839,-4.28519 8.7995,0.78197 13.1264,0.63613 16.7133,-0.56337 5.7334,-1.91727 58.2338,-1.43517 70.1096,0.64382 6.6913,1.17138 26.6778,0.42215 44.9725,-1.68589 5.0515,-0.58207 6.6084,-0.20255 10.442,2.5454 2.4778,1.77622 5.6206,3.22947 6.9839,3.22947 1.3632,0 4.1446,1.06591 6.1809,2.36869 4.4379,2.83945 18.7936,6.39529 25.9024,6.41599 22.4117,0.0653 33.4705,12.31034 17.0452,18.87364 -11.1012,4.4359 -16.2635,6.06982 -23.2163,7.34826 -4.2448,0.78048 -11.1907,2.22368 -15.4355,3.20709 -14.7963,3.42796 -26.9841,4.32841 -67.5072,4.98747 -48.0747,0.78189 -47.9211,0.74888 -36.955,7.94174 3.2785,2.15045 6.2963,4.91262 6.706,6.13821 0.4097,1.22558 1.8864,3.91964 3.2811,5.98681 4.3222,6.40522 5.4036,10.11463 4.2194,14.47188 -0.596,2.19233 -0.7194,8.00774 -0.2741,12.92312 0.9873,10.90465 0.7565,102.20029 -0.2988,118.1347 -1.2324,18.608 2.5688,17.61363 27.1001,-7.08914 7.1864,-7.2367 14.0658,-14.16489 15.2876,-15.39599 1.2218,-1.23112 6.5069,-5.29991 11.7448,-9.04178 5.2379,-3.74189 14.8644,-12.31324 21.3923,-19.04747 6.5279,-6.73424 12.7753,-12.77478 13.8833,-13.42342 2.3718,-1.38874 14.9522,-11.48757 23.3864,-18.77338 3.2652,-2.82059 10.4989,-8.37401 16.0749,-12.3409 5.5759,-3.9669 11.0303,-8.80612 12.1208,-10.75382 1.4285,-2.55176 4.8234,-4.81024 12.1498,-8.08261 10.2867,-4.59461 16.5976,-9.34019 29.9344,-22.50953 9.8627,-9.7387 13.5574,-11.23474 30.6445,-12.4084 7.8365,-0.53827 16.4893,-1.33241 19.2283,-1.76478 3.8901,-0.61406 8.0487,0.23753 18.9975,3.89027 26.5215,8.84795 29.3563,12.02623 29.5737,33.1584 0.134,13.00684 2.5792,33.75109 4.2017,35.64299 0.5613,0.6546 1.0206,7.03413 1.0206,14.1767 0,7.6293 0.58,14.11538 1.4061,15.72301 0.7735,1.50508 1.8069,4.99159 2.2967,7.74782 1.8395,10.35228 3.5535,17.609 4.6565,19.71507 0.6268,1.19649 1.1583,3.45159 1.1814,5.01131 0.024,1.55972 0.8058,4.24531 1.739,5.96794 0.9332,1.72264 1.7159,4.78337 1.7391,6.80161 0.043,3.69211 0.5659,5.98096 4.0707,17.79671 1.0494,3.53777 1.908,8.08115 1.908,10.09639 0,2.01527 0.7845,4.75847 1.7432,6.09601 0.9588,1.33755 1.7603,3.16653 1.781,4.06441 0.02,0.89788 1.3736,3.70666 3.0062,6.24176 1.6326,2.53509 2.9684,5.77992 2.9684,7.21071 0,4.58274 7.0427,23.14311 10.103,26.62557 1.6267,1.85114 2.9578,4.02921 2.9578,4.84015 0,0.81095 0.4007,1.66236 0.8905,1.89206 0.4897,0.22968 1.692,1.91006 2.6715,3.73418 12.4483,23.18118 45.4163,52.36378 59.2178,52.41846 9.7535,0.0385 65.3941,-29.92305 84.6074,-45.56 4.8118,-3.91613 12.4889,-10.13637 17.0602,-13.82275 4.5713,-3.68637 12.0515,-10.48856 16.6228,-15.11598 4.5713,-4.62743 12.5596,-12.44655 17.7518,-17.37584 5.1924,-4.92929 10.2707,-9.808 11.2854,-10.84158 1.0146,-1.03359 6.3839,-5.91596 11.9317,-10.84974 5.5479,-4.93377 13.0256,-11.83229 16.6173,-15.33003 3.5918,-3.49775 10.751,-10.45461 15.9096,-15.4597 10.5256,-10.21272 13.5587,-13.36432 32.3808,-33.64578 7.2949,-7.86063 19.7929,-20.77545 27.7731,-28.6996 7.9803,-7.92416 15.1021,-15.14318 15.8264,-16.0423 6.0326,-7.48916 24.9038,-25.59036 31.6021,-30.3124 5.5364,-3.90297 9.9797,-8.68789 16.2876,-17.5396 8.5857,-12.04838 17.3575,-20.70122 26.0997,-25.7458 4.8175,-2.77988 9.3083,-6.3938 10.4258,-8.38985 1.0797,-1.92854 3.395,-4.46333 5.1451,-5.63284 1.7502,-1.16954 6.558,-5.10848 10.684,-8.75323 13.0457,-11.52393 18.603,-12.80689 39.9733,-9.22816 13.039,2.18351 14.6462,5.87768 8.3301,19.14635 -1.6326,3.42971 -2.9684,6.91027 -2.9684,7.73457 0,4.23944 -12.6053,25.99105 -19.7041,34.00103 -4.2747,4.82339 -9.9414,12.15244 -12.5928,16.28678 -4.7496,7.40623 -10.025,13.53135 -38.305,44.47545 -17.8133,19.4913 -27.0211,30.06438 -33.8562,38.87644 -2.9229,3.76851 -10.9676,12.77145 -17.8766,20.00654 -6.9092,7.23509 -13.9478,15.40982 -15.6415,18.16604 -4.4515,7.24422 -11.3743,14.86457 -18.8014,20.6955 -3.5654,2.79914 -22.5116,21.60643 -42.1028,41.79398 -46.7784,48.20238 -41.9378,43.75882 -71.8344,65.94042 -5.5509,4.1184 -13.0312,10.3293 -16.6229,13.80201 -11.0085,10.64389 -71.3486,40.56773 -94.9685,47.09697 -29.9714,8.28497 -78.2709,-1.75208 -98.7281,-20.51646 -11.8143,-10.83659 -35.4594,-34.93946 -35.4759,-36.16252 -0.012,-0.60654 -2.0428,-3.40612 -4.5215,-6.22129 -2.4786,-2.81517 -5.4913,-7.32536 -6.695,-10.02264 -1.2035,-2.69728 -3.4434,-6.86728 -4.9773,-9.26666 -1.5339,-2.3994 -2.8056,-5.21826 -2.8262,-6.26414 -0.1619,-8.25455 -10.9436,-6.8146 -12.8884,1.72133 -2.7847,12.222 -3.5843,14.9251 -4.7923,16.19963 -0.7037,0.74262 -1.2795,2.33517 -1.2795,3.53902 0,1.20383 -1.3358,4.83958 -2.9684,8.07941 -1.6326,3.23984 -2.9684,6.41538 -2.9684,7.05675 0,1.73204 -9.8758,22.85282 -15.3897,32.91355 -2.6436,4.82338 -6.7164,12.99809 -9.0507,18.16602 -8.4655,18.74308 -10.6383,23.26541 -13.5435,28.18866 -1.6266,2.75622 -3.2759,5.2932 -3.6652,5.63773 -3.3048,2.92423 -26.0277,37.31165 -26.033,39.39673 0,1.78867 -27.6133,31.63194 -35.0233,37.858 -17.3347,14.56503 -30.7114,20.38693 -47.5513,20.69538 -10.6901,0.19594 -27.6772,-6.75727 -31.733,-12.98921 -1.0383,-1.59536 -5.6231,-7.05895 -10.1882,-12.14131 -7.9515,-8.85224 -17.9291,-26.16158 -18.0195,-31.26047 -0.02,-1.15224 -1.3513,-4.91385 -2.9574,-8.35914 -1.6062,-3.44527 -2.9252,-8.13348 -2.9313,-10.41826 0,-2.28467 -0.6004,-5.31664 -1.3212,-6.73748 -3.3009,-6.50819 -5.6541,-32.97523 -3.3377,-37.54191 0.8748,-1.72502 1.8413,-11.52553 2.3878,-24.21332 1.0959,-25.44884 2.1335,-33.09405 5.5921,-41.20675 1.4326,-3.3606 2.6049,-7.13857 2.6049,-8.39548 0,-3.88027 3.4291,-16.41434 5.3267,-19.47013 1.9195,-3.09112 7.5559,-13.64002 8.957,-16.76378 0.4637,-1.03359 1.9576,-4.41622 3.3201,-7.51698 1.3624,-3.10075 3.6425,-7.89282 5.0669,-10.64905 1.4245,-2.75624 3.4122,-6.70265 4.4172,-8.76982 3.3435,-6.87742 4.3603,-8.72847 6.4547,-11.74872 14.2654,-20.57395 -13.3439,-1.3252 -33.9232,23.65062 -1.4194,1.72264 -5.1581,5.66905 -8.3083,8.76981 -12.8188,12.61787 -17.2121,17.28516 -23.5856,25.05658 -12.8706,15.69358 -17.594,22.19544 -17.594,24.21843 0,1.12216 -0.7411,4.16583 -1.6467,6.76373 -0.9057,2.59792 -2.3167,9.5156 -3.1356,15.37257 -0.8188,5.85699 -2.0086,12.05849 -2.644,13.78113 -1.9694,5.3383 -5.6264,26.63114 -5.6306,32.78291 0,3.21589 -1.1178,8.57173 -2.479,11.90187 -4.1589,10.17373 -5.6796,15.70135 -6.8361,24.84726 -0.6098,4.82339 -2.0288,11.87056 -3.1531,15.66037 -1.1244,3.7898 -2.3048,12.45149 -2.6232,19.24833 -0.5217,11.13465 -0.9946,13.18078 -4.7782,20.6717 -2.3097,4.57258 -4.6311,10.569 -5.1589,13.32523 -2.5903,13.52679 -3.5429,17.74194 -4.5302,20.04526 -3.7827,8.82456 -4.8782,11.87507 -4.8782,13.58331 0,1.06101 -0.5343,2.27751 -1.1874,2.70348 -0.653,0.42583 -1.1874,2.88826 -1.1874,5.47223 0,2.58383 -0.7844,5.7922 -1.7432,7.12973 -0.9588,1.33764 -1.7602,4.23093 -1.781,6.42964 -0.02,2.19884 -0.5371,4.32339 -1.1472,4.72129 -1.2861,0.83864 -4.8272,13.05812 -4.8272,16.657 0,1.34179 -1.3358,5.09024 -2.9684,8.33006 -1.6326,3.23995 -2.9717,7.12935 -2.9757,8.64327 0,1.51392 -0.8054,4.36736 -1.7812,6.34108 -0.9755,1.97358 -1.7735,4.30058 -1.7735,5.17105 0,0.87046 -0.7498,2.23931 -1.6663,3.04174 -2.1386,1.87273 -7.8325,14.11413 -7.8325,16.83916 0,1.14471 -2.6521,6.54641 -5.8936,12.00386 -3.2414,5.45732 -6.2571,11.51174 -6.7011,13.45414 -1.2963,5.66867 -5.3524,14.32047 -9.8993,21.11556 -5.8358,8.72145 -6.6435,10.16145 -10.658,19.00418 -1.9408,4.27514 -5.6946,9.83746 -8.3417,12.36091 -2.6471,2.52332 -4.8128,5.10979 -4.8128,5.74772 0,3.19773 -9.5323,12.38799 -19.9722,19.25563 -5.0148,3.29882 -10.4536,7.25801 -12.0862,8.79824 -10.2724,9.69077 -26.4737,13.28277 -38.5887,8.55547 z m 318.5696,-317.33097 c 0.2085,-0.66061 1.9493,-3.48787 3.8681,-6.28281 1.9188,-2.79493 3.4887,-5.5959 3.4887,-6.2242 0,-1.41907 15.6007,-26.27145 21.3925,-34.0787 3.9619,-5.34069 8.168,-13.54422 14.0703,-27.44198 1.3169,-3.10075 4.5155,-8.3169 7.1081,-11.59156 4.8447,-6.11923 6.8937,-10.19248 12.7604,-25.36696 1.8649,-4.82338 7.0087,-16.31894 11.4311,-25.54567 4.4222,-9.22673 8.0404,-18.07289 8.0404,-19.65813 0,-1.58524 0.4753,-3.19218 1.0562,-3.57099 0.5808,-0.37881 1.3028,-2.52623 1.6043,-4.77206 0.6718,-5.0049 3.2407,-15.71882 4.5838,-19.11725 0.5447,-1.37812 2.6431,-7.86151 4.6633,-14.40755 2.0201,-6.54603 4.1444,-13.02943 4.7204,-14.40753 0.5762,-1.37811 1.3915,-4.89874 1.8118,-7.82362 0.4205,-2.92488 1.2522,-5.63608 1.8484,-6.02488 0.5963,-0.3888 1.084,-2.60886 1.084,-4.93346 0,-8.32302 -6.1348,-6.9974 -15.0814,3.2588 -2.4804,2.84345 -7.4484,7.29518 -11.0402,9.89274 -6.7552,4.88547 -19.6784,18.50724 -27.9247,29.43418 -2.6,3.44527 -9.0526,11.05622 -14.3389,16.91319 -9.9145,10.98428 -21.8531,28.89599 -21.8531,32.78628 0,2.37673 -0.9843,4.85012 -9.7357,24.46316 -3.1349,7.0257 -5.6998,13.62056 -5.6998,14.65526 0,1.0347 -1.5333,6.56186 -3.4075,12.2826 -6.2686,19.13472 -8.0908,29.31133 -7.9192,44.22777 0.2392,20.81112 2.0238,43.72613 3.4914,44.83401 1.6682,1.25934 9.4762,0.0852 9.9773,-1.50064 z M 847.43865,667.05596 c 2.08995,-1.13056 5.20731,-3.24471 6.92745,-4.69811 1.72016,-1.45341 6.52891,-4.84557 10.68611,-7.53803 4.15719,-2.69245 9.1615,-7.10768 11.12061,-9.81153 1.95912,-2.70385 5.48435,-7.26628 7.83375,-10.13852 2.3494,-2.87237 7.13322,-9.45072 10.63066,-14.61864 3.49745,-5.16792 8.3474,-11.82358 10.77778,-14.79028 2.43037,-2.96671 5.2584,-7.99395 6.28451,-11.17163 1.02621,-3.17766 2.56894,-6.66998 3.42845,-7.76069 0.85953,-1.09069 2.537,-4.52007 3.7278,-7.62082 6.85537,-17.85107 13.3942,-32.12654 17.36433,-37.90938 1.91164,-2.78452 3.47572,-6.48852 3.47572,-8.23112 0,-3.16077 1.57786,-9.31556 3.90922,-15.24814 0.6769,-1.72265 1.63616,-5.95095 2.13175,-9.39623 0.49549,-3.44527 1.71323,-9.92867 2.70596,-14.40753 0.99275,-4.47887 2.18009,-9.83472 2.63853,-11.90189 0.45843,-2.06717 1.5572,-4.87053 2.44177,-6.2297 0.88458,-1.35916 1.60827,-3.72194 1.60827,-5.25059 0,-1.52865 0.5343,-3.12779 1.18734,-3.55366 0.65304,-0.42586 1.20433,-2.00951 1.22511,-3.51922 0.0202,-1.50971 0.82223,-3.83928 1.78101,-5.17683 0.95878,-1.33754 1.74326,-4.46648 1.74326,-6.95321 0,-2.48672 0.65922,-5.21691 1.46495,-6.06711 0.95296,-1.00548 1.50675,-6.01948 1.58439,-14.34489 0.26633,-28.55505 7.82153,-44.34395 22.89014,-47.83613 4.58403,-1.06231 30.16618,2.64867 34.61518,5.02131 5.6151,2.99451 12.3358,9.46242 13.9982,13.4715 0.9158,2.20877 2.4155,5.51235 3.3324,7.34131 2.3321,4.65229 2.371,42.30874 0.049,47.16323 -1.7486,3.65496 -3.6001,20.13178 -3.231,28.75286 0.9002,21.01902 0.3812,44.68674 -1.1744,53.55847 -2.7968,15.95078 0.5465,76.10793 4.683,84.26334 0.7374,1.45391 1.3408,4.65389 1.3408,7.11081 0,2.45705 0.5343,4.46734 1.1874,4.46734 0.653,0 1.1873,0.80532 1.1873,1.78967 0,0.98447 0.8008,2.6347 1.7794,3.66728 0.9786,1.03258 3.375,5.51508 5.3252,9.96113 5.4809,12.49459 11.7229,12.30466 23.1901,-0.70586 3.7915,-4.30196 11.8955,-13.45938 18.0087,-20.34995 12.2348,-13.79052 17.6976,-21.53263 22.5421,-31.9472 1.7628,-3.78981 5.5105,-10.44795 8.3279,-14.79585 2.8606,-4.41438 5.4549,-10.09659 5.8749,-12.86756 0.5387,-3.5544 2.4942,-7.02245 6.8925,-12.22365 3.3773,-3.99375 6.8248,-9.19693 7.6611,-11.56261 0.8363,-2.36568 2.0104,-5.28018 2.6088,-6.47668 0.5986,-1.19651 1.0883,-2.79663 1.0883,-3.55586 0,-2.55551 7.1851,-17.78726 10.1364,-21.48797 1.6084,-2.01701 2.9245,-4.93951 2.9245,-6.49445 0,-1.55492 0.3917,-3.2404 0.8703,-3.74551 1.2135,-1.28037 3.9099,-10.30483 5.0909,-17.03885 0.9478,-5.40386 1.8694,-9.38352 5.3668,-23.17735 3.2487,-12.81147 4.0345,-16.49416 5.3466,-25.05659 1.247,-8.13713 2.1367,-11.15508 5.7246,-19.41886 0.7478,-1.72264 1.2235,-7.36038 1.057,-12.52829 -0.2701,-8.37504 0.1163,-10.32478 3.5559,-17.94023 2.1225,-4.6992 3.8661,-9.49127 3.8751,-10.64905 0.2166,-28.27582 44.9871,-35.75923 72.1669,-12.06277 6.5859,5.7418 9.845,24.33415 4.838,27.59931 -0.5671,0.36978 -1.031,2.2971 -1.031,4.28293 0,1.98584 -0.5342,3.95905 -1.1873,4.3849 -0.653,0.42586 -1.1873,2.03771 -1.1873,3.58187 0,1.54416 -0.5859,3.42571 -1.3019,4.18122 -1.4534,1.53359 -4.6313,17.71429 -4.6335,23.59209 -8e-4,2.08612 -0.7247,4.90499 -1.6088,6.26415 -0.8841,1.35916 -1.9415,4.72631 -2.3499,7.48253 -0.4083,2.75623 -1.2646,7.54831 -1.9029,10.64906 -0.6382,3.10075 -1.1837,10.22001 -1.2121,15.82058 -0.032,6.34066 -0.7613,11.97459 -1.9322,14.93148 -1.396,3.5256 -1.8313,8.48578 -1.6901,19.25865 0.468,35.68955 -0.064,65.28725 -1.2313,68.52733 -2.0031,5.55907 -1.694,24.1138 0.5062,30.39298 1.0565,3.01507 1.921,8.20354 1.921,11.52967 0,7.66206 4.3223,17.22854 10.7103,23.70529 0.3397,0.34452 1.2633,2.17678 2.0523,4.0717 2.5629,6.15514 19.2427,-1.31298 29.3881,-13.1581 7.7024,-8.99293 9.9313,-11.43746 14.2569,-15.63619 5.3781,-5.2204 13.5926,-15.79881 16.9837,-21.87083 1.6584,-2.96948 4.6805,-7.65414 6.716,-10.41037 2.0353,-2.75622 4.4339,-6.55683 5.33,-8.44578 0.8959,-1.88896 3.9458,-5.72546 6.7771,-8.52557 2.8314,-2.80011 5.1479,-5.57919 5.1479,-6.17573 0,-0.59655 2.6715,-5.62957 5.9367,-11.18451 3.2652,-5.55494 5.9368,-10.95543 5.9368,-12.00111 0,-1.04567 0.4487,-1.90122 0.997,-1.90122 0.5483,0 2.9499,-4.08736 5.3368,-9.08302 2.3871,-4.99567 6.7472,-12.66979 9.6893,-17.0536 2.9419,-4.38381 5.3491,-8.95557 5.3491,-10.15946 0,-1.20388 2.0545,-4.6643 4.5655,-7.68979 6.7203,-8.09697 10.3948,-14.85823 11.2742,-20.74484 0.4289,-2.87171 2.6507,-9.90175 4.9372,-15.62233 2.2865,-5.72056 4.1574,-10.87862 4.1574,-11.46229 0,-0.5837 1.2651,-2.8559 2.8115,-5.04935 1.5464,-2.19346 4.5686,-8.78019 6.7161,-14.63716 2.1475,-5.85698 4.8165,-12.90415 5.9308,-15.66037 1.1143,-2.75622 2.4145,-7.26008 2.8894,-10.00856 0.4751,-2.7485 2.6216,-7.54058 4.7701,-10.64905 2.1487,-3.1085 4.305,-7.60348 4.7921,-9.98885 0.487,-2.38538 2.2082,-6.44614 3.8249,-9.02391 1.9853,-3.16557 3.4125,-8.06093 4.3966,-15.08182 0.8015,-5.71722 2.0828,-11.62638 2.8476,-13.13145 0.7649,-1.50508 1.3906,-5.62043 1.3906,-9.14522 0,-3.52481 0.819,-8.07963 1.8197,-10.12183 1.387,-2.82998 1.74,-7.04039 1.4842,-17.7027 -0.4372,-18.23206 2.8586,-17.24439 -38.9243,-11.66404 -11.7174,1.56493 -19.7021,1.91212 -29.6836,1.29072 -20.3729,-1.26832 -21.3303,-1.19348 -29.6837,2.32042 -5.4406,2.28864 -11.5713,3.59804 -20.7785,4.43787 -12.2321,1.11574 -34.4824,3.34259 -63.523,6.35746 -6.8569,0.71186 -18.0773,2.12741 -24.9342,3.14566 -16.2887,2.41884 -41.5871,5.17348 -62.3358,6.78743 -9.1426,0.71118 -22.5002,1.85839 -29.6836,2.54938 -7.1834,0.69099 -15.9994,1.51656 -19.5912,1.83463 -3.5917,0.31806 -10.2705,1.14886 -14.8418,1.84623 -4.5713,0.69738 -13.6545,1.83128 -20.1849,2.51978 -6.5304,0.6885 -18.5523,2.40922 -26.7153,3.82383 -8.163,1.41461 -22.8564,3.40115 -32.652,4.41454 -9.7956,1.0134 -22.3518,2.70121 -27.9026,3.75066 -5.5509,1.04947 -14.63406,2.77729 -20.18496,3.83964 -5.55084,1.06234 -19.97708,2.39955 -32.05833,2.9716 -15.25728,0.72242 -25.41086,1.8725 -33.24568,3.76567 -6.20388,1.49909 -14.75277,3.5696 -18.99753,4.60116 -11.23657,2.7307 -29.85795,5.32012 -52.83689,7.34734 -13.47813,1.18903 -24.91905,3.01733 -34.43302,5.50249 -7.83649,2.04698 -17.45398,4.10005 -21.37223,4.56236 -36.07231,4.25634 -50.91805,10.93989 -51.24445,23.07023 -0.20732,7.70434 -1.71627,16.35493 -3.80456,21.81083 -2.48111,6.48222 -1.70707,20.35274 1.43009,25.62633 1.52899,2.57028 4.60124,8.53478 6.82723,13.25444 2.22599,4.71966 5.21789,10.92116 6.64869,13.78112 1.43079,2.85996 2.63298,5.88857 2.67153,6.73024 0.0385,0.84167 1.40585,4.71729 3.03845,8.61249 1.63259,3.89519 2.96836,8.12043 2.96836,9.38943 0,1.269 0.87551,4.44054 1.9456,7.04788 2.96331,7.22039 3.57633,9.18251 5.19955,16.64249 0.82463,3.78981 2.79193,11.11887 4.37179,16.28679 4.41106,14.42917 7.42177,26.60127 7.45264,30.13055 0.0154,1.7571 0.47779,3.7303 1.02759,4.3849 0.5498,0.65461 1.94657,5.00218 3.10392,9.66126 1.15737,4.65909 2.51595,8.7395 3.01907,9.06761 0.50314,0.3281 1.27446,3.12731 1.71406,6.22046 0.4396,3.09318 1.30272,5.95225 1.91803,6.35351 0.6153,0.40126 1.11874,1.86586 1.11874,3.25474 0,1.38889 2.13722,6.80551 4.74938,12.03708 2.61217,5.23144 4.74938,10.54794 4.74938,11.81442 0,4.54427 9.78676,22.33532 14.35427,26.09431 0.41864,0.34453 1.10794,1.75396 1.53176,3.13207 2.68403,8.72746 21.65165,16.6456 29.58891,12.35203 z m -233.44893,-3.17418 c 1.92307,-1.9063 2.74806,-4.13157 2.74806,-7.4126 0,-2.57871 0.40073,-4.87652 0.89051,-5.10616 1.43563,-0.67327 5.04622,-8.56171 5.04622,-11.02502 0,-1.24345 0.79817,-3.87576 1.7737,-5.84934 0.97553,-1.97371 1.777,-5.7139 1.78101,-8.31152 0.004,-2.8686 1.17277,-6.67107 2.97569,-9.6845 1.6326,-2.72891 2.96837,-6.06708 2.96837,-7.41813 0,-1.35117 0.46411,-2.75935 1.03138,-3.12931 0.56726,-0.36984 1.36787,-2.8928 1.77912,-5.60655 0.41126,-2.71372 1.25719,-5.12224 1.87982,-5.3523 1.49875,-0.55376 3.74403,-13.13756 4.43361,-24.84844 0.30431,-5.16793 1.04745,-9.93181 1.6514,-10.58641 0.60398,-0.65461 1.09812,-1.97884 1.09812,-2.94274 0,-0.9639 0.72034,-3.52906 1.60075,-5.70037 3.32414,-8.19811 5.53487,-16.6346 5.5292,-21.10029 -0.003,-2.54329 0.52843,-4.97261 1.18147,-5.39848 0.65304,-0.42586 1.18734,-2.38908 1.18734,-4.36272 0,-1.99982 1.3141,-5.23625 2.96837,-7.31067 2.23599,-2.80388 2.96837,-5.16127 2.96837,-9.55458 0,-3.20775 0.82639,-7.51849 1.83642,-9.5794 2.11755,-4.32071 1.96414,-18.81732 -0.20712,-19.57293 -1.95469,-0.68025 -11.12807,9.34209 -11.12807,12.1579 0,2.52377 -8.03668,19.38227 -12.13456,25.45459 -2.37953,3.52607 -3.43775,6.86314 -6.03514,19.03197 -0.73538,3.44528 -1.66783,6.54603 -2.07212,6.89056 -1.63491,1.39325 -8.36141,17.98907 -9.53367,23.52171 -0.68986,3.25588 -1.83727,8.45676 -2.54982,11.55752 -0.71255,3.10075 -1.53473,7.75541 -1.82706,10.34369 -0.29233,2.58828 -1.00937,5.01758 -1.59343,5.39846 -0.58404,0.38088 -1.06192,3.53205 -1.06192,7.00261 0,3.47056 -0.7467,7.80652 -1.65934,9.63553 -10.90686,21.85774 -8.87916,70.11122 2.47332,58.85792 z"
     id="path1" />
</svg>
